<?xml version="1.0" encoding="utf-8"?>
<!-- Generator: Adobe Illustrator 24.0.2, SVG Export Plug-In . SVG Version: 6.00 Build 0)  -->
<svg version="1.1" id="Layer_1" xmlns="http://www.w3.org/2000/svg" xmlns:xlink="http://www.w3.org/1999/xlink" x="0px" y="0px"
	 viewBox="0 0 988.7 988.7" style="enable-background:new 0 0 988.7 988.7;" xml:space="preserve">
<style type="text/css">
	.st0{fill:#FFFFFF;}
</style>
<path class="st0" d="M259.5,388.2l140.7,105.6c8.2,6.2,12.9,14.7,12.9,23.5c0,8.8-4.7,17.3-12.9,23.5L259.5,646.4
	c-7.3,5.5-17.2,8.5-27.5,8.5c-21.4,0-38.8-13.1-38.8-29.1v-53.4H46.5c-20.3,0-36.7-12.3-36.7-27.5v-55c0-15.2,16.4-27.5,36.7-27.5
	h146.6v-53.4c0-16.1,17.4-29.1,38.8-29.1C242.3,379.7,252.2,382.8,259.5,388.2z"/>
<path class="st0" d="M747.6,889.5l88.4-3.7c45.4-0.9,46.5-63.7,46.5-104.2V196.5c0-40.5-1.4-96.8-46.5-104.9l-93.8-1.8
	c-25.7,0-45.7,0.9-45.7-39.6S723.7,9,749.5,9l86.5,1.8c77,0,139.5,64.5,139.5,185.6v585.2c0,121.2-62.5,192.2-139.5,192.2h-93.8
	c-25.7,0-45.7-5.5-45.7-45.9C696.5,887.5,721.9,889.5,747.6,889.5z"/>
</svg>
