<?xml version="1.0" encoding="utf-8"?>
<!-- Generator: Adobe Illustrator 24.0.2, SVG Export Plug-In . SVG Version: 6.00 Build 0)  -->
<svg version="1.1" id="Layer_1" xmlns="http://www.w3.org/2000/svg" xmlns:xlink="http://www.w3.org/1999/xlink" x="0px" y="0px"
	 viewBox="0 0 1024 1024" style="enable-background:new 0 0 1024 1024;" xml:space="preserve">
<style type="text/css">
	.st0{fill:#FFFFFF;}
</style>
<path class="st0" d="M475.4,585.2c-202,0-365.7,163.7-365.7,365.7c0,20.2-16.4,36.6-36.6,36.6s-36.6-16.4-36.6-36.6
	c0-182.4,112.8-345.8,283.3-410.5C183,454.5,141.7,274,227.6,137.1S494.1-41.1,630.9,44.8s178.2,266.5,92.3,403.3
	C669.7,533.4,576.1,585.2,475.4,585.2z M768,804.6V694.9c0-20.2,16.4-36.6,36.6-36.6c20.2,0,36.6,16.4,36.6,36.6v109.7h109.7
	c20.2,0,36.6,16.4,36.6,36.6s-16.4,36.6-36.6,36.6H841.1v109.7c0,20.2-16.4,36.6-36.6,36.6c-20.2,0-36.6-16.4-36.6-36.6V877.7H658.3
	c-20.2,0-36.6-16.4-36.6-36.6s16.4-36.6,36.6-36.6H768z M475.4,512c121.2,0,219.4-98.2,219.4-219.4S596.6,73.2,475.4,73.2
	S256,171.4,256,292.6S354.2,512,475.4,512z"/>
</svg>
